<?xml version="1.0" encoding="UTF-8" standalone="no"?><!DOCTYPE svg PUBLIC "-//W3C//DTD SVG 1.1//EN" "http://www.w3.org/Graphics/SVG/1.1/DTD/svg11.dtd"><svg width="100%" height="100%" viewBox="0 0 512 512" version="1.1" xmlns="http://www.w3.org/2000/svg" xmlns:xlink="http://www.w3.org/1999/xlink" xml:space="preserve" xmlns:serif="http://www.serif.com/" style="fill-rule:evenodd;clip-rule:evenodd;stroke-linejoin:round;stroke-miterlimit:2;"><path d="M474,256c0,-120.317 -97.683,-218 -218,-218c-120.317,0 -218,97.683 -218,218c0,120.317 97.683,218 218,218c120.317,0 218,-97.683 218,-218Z" style="fill:#2a4365;"/><path d="M176.067,287.489c3.144,4.192 4.844,9.293 4.844,14.533c0,13.288 -10.934,24.222 -24.222,24.222c-5.24,0 -10.341,-1.7 -14.533,-4.844l-48.445,-48.444c-9.173,-9.359 -9.173,-24.553 0,-33.912l48.445,-48.444c4.571,-6.095 11.759,-9.689 19.377,-9.689c13.288,0 24.223,10.934 24.223,24.222c0,7.619 -3.595,14.807 -9.689,19.378l-31.005,31.489l31.489,31.489l-0.484,0Zm159.866,0l31.247,-31.489l-31.489,-31.489c-5.289,-4.598 -8.331,-11.272 -8.331,-18.28c0,-13.288 10.935,-24.223 24.223,-24.223c7.128,0 13.904,3.147 18.504,8.592l48.444,48.444c9.174,9.359 9.174,24.553 0,33.912l-48.444,48.444c-4.407,3.831 -10.053,5.942 -15.892,5.942c-13.288,0 -24.222,-10.935 -24.222,-24.222c0,-5.721 2.027,-11.261 5.718,-15.631l0.242,0Zm-80.417,94.467c-2.294,11.237 -12.269,19.382 -23.738,19.382c-13.291,0 -24.227,-10.936 -24.227,-24.227c0,-1.627 0.164,-3.25 0.489,-4.844l48.444,-242.223c2.294,-11.237 12.269,-19.382 23.738,-19.382c13.291,0 24.227,10.936 24.227,24.227c0,1.627 -0.164,3.25 -0.489,4.844l-48.444,242.223Z" style="fill:#fff;fill-rule:nonzero;"/></svg>
